<svg xmlns="http://www.w3.org/2000/svg" width="62" height="15" viewBox="0 0 62 15" fill="none"><path fill-rule="evenodd" clip-rule="evenodd" d="M6.25084 5.625H9.53934C10.963 5.625 12.1171 6.70431 12.1171 8.03571C12.1171 9.36712 10.963 10.4464 9.53934 10.4464H6.91915C6.31277 10.4464 5.82121 10.9061 5.82121 11.4732V12.278C5.82121 13.7813 4.51808 15 2.9106 15C1.30312 15 0 13.7813 0 12.278V3.75C0 1.67893 1.79528 0 4.00988 0H10.3749C11.6283 0 12.6727 0.836554 12.9047 1.94519C13.5867 0.785719 14.9054 0 16.4204 0H22.7855C23.6461 0 24.4082 0.394439 24.8764 1.00056C25.3966 0.397822 26.193 0 27.117 0C28.3633 0 29.4682 0.749415 29.8553 1.85723L31.3346 6.09039L32.7806 2.12818C33.2451 0.855452 34.5238 0 35.9618 0C37.4143 0 38.7025 0.872474 39.1555 2.16306L40.5491 6.13303L42.1106 1.76643C42.4879 0.711328 43.5443 0 44.734 0C46.6216 0 47.9548 1.72912 47.3585 3.40405L44.0683 12.6464C43.568 14.0518 42.1619 15 40.578 15C38.9913 15 37.5833 14.0486 37.0852 12.6397L35.8728 9.2104L34.6096 12.6711C34.1012 14.0639 32.7018 15 31.1281 15C29.546 15 28.141 14.0539 27.6393 12.6507L24.5927 4.12977C24.1275 4.55754 23.4894 4.82143 22.7855 4.82143H18.6614C18.4241 4.82143 18.2318 5.00131 18.2318 5.22321C18.2318 5.44511 18.4241 5.625 18.6614 5.625H21.9499C23.3736 5.625 24.5277 6.70431 24.5277 8.03571C24.5277 9.36712 23.3736 10.4464 21.9499 10.4464H19.3297C18.7233 10.4464 18.2318 10.9061 18.2318 11.4732V12.278C18.2318 13.7813 16.9286 15 15.3212 15C13.7137 15 12.4106 13.7813 12.4106 12.278V3.88988C11.9389 4.45676 11.2024 4.82143 10.3749 4.82143H6.25084C6.01356 4.82143 5.82121 5.00131 5.82121 5.22321C5.82121 5.44511 6.01356 5.625 6.25084 5.625ZM55.423 12.3214H52.2149C51.8115 12.3214 51.4474 12.5476 51.2909 12.8954L51.0635 13.4011C50.6277 14.3699 49.6134 15 48.4896 15C46.4597 15 45.1081 13.0387 45.9466 11.3099L50.4337 2.0585C51.0416 0.805045 52.3774 0 53.8491 0C55.3192 0 56.6538 0.803278 57.2626 2.05465L61.7429 11.2625C62.5944 13.0125 61.2265 15 59.1707 15C58.0333 15 57.0067 14.3623 56.5657 13.3818L56.3469 12.8954C56.1905 12.5476 55.8264 12.3214 55.423 12.3214ZM53.1038 5.69762L51.9846 8.1808C51.836 8.51039 52.0948 8.875 52.4773 8.875H55.18C55.5625 8.875 55.8213 8.51039 55.6727 8.1808L54.5539 5.69845L54.3213 5.18241C54.1376 4.77468 53.5197 4.77468 53.336 5.18241L53.1038 5.69762ZM53.8286 7.30761L53.6856 7.625H53.9717L53.8286 7.30761ZM4.48458 5.22321C4.48458 4.31096 5.27536 3.57143 6.25084 3.57143H10.3749C11.0604 3.57143 11.6161 3.05176 11.6161 2.41071C11.6161 1.76967 11.0604 1.25 10.3749 1.25H4.00988C2.53348 1.25 1.33663 2.36929 1.33663 3.75V12.278C1.33663 13.091 2.04132 13.75 2.9106 13.75C3.77989 13.75 4.48458 13.091 4.48458 12.278V11.4732C4.48458 10.2158 5.57457 9.19643 6.91915 9.19643H9.53934C10.2248 9.19643 10.7805 8.67676 10.7805 8.03571C10.7805 7.39467 10.2248 6.875 9.53934 6.875H6.25084C5.27536 6.875 4.48458 6.13547 4.48458 5.22321ZM16.8951 5.22321C16.8951 4.31096 17.6859 3.57143 18.6614 3.57143H22.7855C23.4709 3.57143 24.0266 3.05176 24.0266 2.41071C24.0266 1.76967 23.4709 1.25 22.7855 1.25H16.4204C14.944 1.25 13.7472 2.36929 13.7472 3.75V12.278C13.7472 13.091 14.4519 13.75 15.3212 13.75C16.1904 13.75 16.8951 13.091 16.8951 12.278V11.4732C16.8951 10.2158 17.9851 9.19643 19.3297 9.19643H21.9499C22.6354 9.19643 23.191 8.67676 23.191 8.03571C23.191 7.39467 22.6354 6.875 21.9499 6.875H18.6614C17.6859 6.875 16.8951 6.13547 16.8951 5.22321ZM44.734 1.25C45.7095 1.25 46.3985 2.14361 46.0903 3.00921L42.8001 12.2516C42.4816 13.1464 41.5864 13.75 40.578 13.75C39.5678 13.75 38.6714 13.1443 38.3543 12.2473L36.8921 8.11154C36.5704 7.20141 35.1961 7.19521 34.8649 8.1024L33.3446 12.2673C33.021 13.154 32.13 13.75 31.1281 13.75C30.1208 13.75 29.2264 13.1477 28.9069 12.2543L25.6525 3.15211C25.318 2.21673 26.0624 1.25 27.117 1.25C27.785 1.25 28.3773 1.65171 28.5848 2.24554L30.3128 7.1901C30.6318 8.10296 32.0094 8.11135 32.3411 7.20245L34.0456 2.53192C34.3254 1.76529 35.0956 1.25 35.9618 1.25C36.8367 1.25 37.6127 1.77554 37.8856 2.55293L39.5308 7.23975C39.8519 8.15454 41.2343 8.15813 41.5608 7.24502L43.3782 2.16289C43.5732 1.61761 44.1192 1.25 44.734 1.25ZM55.423 11.0714C56.3643 11.0714 57.214 11.5992 57.579 12.4107L57.7978 12.8972C58.0302 13.4139 58.5712 13.75 59.1707 13.75C60.2542 13.75 60.9751 12.7025 60.5263 11.7802L56.0461 2.57237C55.6542 1.76699 54.7953 1.25 53.8491 1.25C52.9019 1.25 52.0422 1.76812 51.651 2.57484L47.1638 11.8263C46.7267 12.7275 47.4313 13.75 48.4896 13.75C49.0754 13.75 49.6042 13.4215 49.8314 12.9165L50.0589 12.4107C50.4239 11.5992 51.2735 11.0714 52.2149 11.0714H55.423Z" fill="#17181A"></path></svg>