<svg width="117" height="40" viewBox="0 0 117 40" fill="none" xmlns="http://www.w3.org/2000/svg">
<path d="M26.377 35.3532C25.3117 35.3532 24.3759 35.1521 23.5697 34.75C22.7779 34.3479 22.1517 33.7745 21.691 33.0298C21.2447 32.2851 21.0144 31.3989 21 30.3713H23.4186C23.433 31.1606 23.6921 31.8383 24.196 32.4043C24.7143 32.9553 25.4341 33.2309 26.3554 33.2309C27.2048 33.2309 27.8671 33.0298 28.3421 32.6277C28.8172 32.2106 29.0548 31.6745 29.0548 31.0191C29.0548 30.4681 28.9108 30.0138 28.6229 29.6564C28.3493 29.284 27.9174 28.9564 27.3272 28.6734C26.7369 28.3755 25.9739 28.0702 25.0382 27.7574C23.7857 27.3404 22.8643 26.767 22.2741 26.0372C21.6838 25.2926 21.3887 24.384 21.3887 23.3117C21.3887 22.0755 21.8206 21.0777 22.6844 20.3181C23.5482 19.5585 24.7359 19.1787 26.2475 19.1787C27.7159 19.1787 28.8964 19.5734 29.789 20.3628C30.6815 21.1372 31.1422 22.217 31.171 23.6021H28.7308C28.7308 23.2298 28.6301 22.8723 28.4285 22.5298C28.227 22.1723 27.939 21.8819 27.5647 21.6585C27.1904 21.4202 26.7297 21.3011 26.1827 21.3011C25.5061 21.2862 24.9374 21.4574 24.4767 21.8149C24.016 22.1574 23.7857 22.6266 23.7857 23.2223C23.7857 23.9521 24.0664 24.5255 24.6279 24.9426C25.1893 25.3447 26.1035 25.7617 27.3704 26.1936C28.1622 26.4617 28.8604 26.7894 29.465 27.1766C30.0841 27.5489 30.5664 28.033 30.9119 28.6287C31.2718 29.2096 31.4517 29.9543 31.4517 30.8628C31.4517 31.6968 31.2502 32.4564 30.8471 33.1415C30.444 33.8117 29.8609 34.3479 29.0979 34.75C28.3493 35.1521 27.4424 35.3532 26.377 35.3532Z" fill="#17181A"/>
<path d="M38.3104 35.3532C37.2882 35.3532 36.3741 35.1149 35.5679 34.6383C34.7617 34.1617 34.1282 33.4915 33.6675 32.6277C33.2069 31.7489 32.9765 30.7213 32.9765 29.5447C32.9765 28.3681 33.2069 27.3479 33.6675 26.484C34.1282 25.6053 34.7617 24.9277 35.5679 24.4511C36.3741 23.9745 37.2954 23.7362 38.332 23.7362C39.3685 23.7362 40.2827 23.9745 41.0745 24.4511C41.8807 24.9277 42.5069 25.6053 42.9532 26.484C43.4139 27.3479 43.6442 28.3681 43.6442 29.5447C43.6442 30.7213 43.4139 31.7489 42.9532 32.6277C42.4925 33.4915 41.8591 34.1617 41.0529 34.6383C40.2611 35.1149 39.3469 35.3532 38.3104 35.3532ZM38.3104 33.0968C38.8574 33.0968 39.3613 32.9702 39.822 32.717C40.2827 32.4638 40.6498 32.0766 40.9233 31.5553C41.2112 31.0191 41.3552 30.3489 41.3552 29.5447C41.3552 28.7255 41.2112 28.0553 40.9233 27.534C40.6498 27.0128 40.2827 26.6255 39.822 26.3723C39.3757 26.1191 38.879 25.9926 38.332 25.9926C37.7849 25.9926 37.281 26.1191 36.8203 26.3723C36.3597 26.6255 35.9854 27.0128 35.6974 27.534C35.4239 28.0553 35.2871 28.7255 35.2871 29.5447C35.2871 30.766 35.5823 31.667 36.1725 32.2479C36.7772 32.8138 37.4898 33.0968 38.3104 33.0968Z" fill="#17181A"/>
<path d="M45.4065 40V37.9223H47.1557C47.6595 37.9223 48.0195 37.8106 48.2354 37.5872C48.4657 37.3787 48.5809 37.0213 48.5809 36.5149V26.0149H45.86V24.0043H48.5809V22.4628C48.5809 21.2266 48.876 20.3404 49.4663 19.8043C50.0565 19.2681 50.8987 19 51.9928 19H54.6058V21.0777H52.2736C51.7697 21.0777 51.4098 21.1819 51.1939 21.3904C50.9779 21.5989 50.8699 21.9638 50.8699 22.4851V24.0043H54.6058V26.0149H50.8699V36.5372C50.8699 37.7734 50.5748 38.6596 49.9846 39.1957C49.3943 39.7319 48.5449 40 47.4364 40H45.4065Z" fill="#17181A"/>
<path d="M63.6455 35.0851C62.5945 35.0851 61.7595 34.8245 61.1405 34.3032C60.5214 33.767 60.2119 32.8213 60.2119 31.466V26.0149H57.5126V24.0043H59.1106C59.8448 24.0043 60.2767 23.6319 60.4063 22.8872L60.7302 21.1H62.5009V24.0043H66.7335V26.0149H62.5009V31.4213C62.5009 32.0021 62.6233 32.4117 62.868 32.65C63.1272 32.8734 63.5663 32.9851 64.1853 32.9851H66.6903V35.0851H63.6455Z" fill="#17181A"/>
<path d="M70.5905 35.0851L68.2582 24.0043H70.5041L71.7997 31.7787L73.333 24.0043H75.7947L77.3279 31.7787L78.6236 24.0043H80.8694L78.5372 35.0851H76.1834L74.5638 27.0872L72.9443 35.0851H70.5905Z" fill="#17181A"/>
<path d="M85.6766 35.3532C84.8272 35.3532 84.1146 35.2043 83.5387 34.9064C82.9629 34.5936 82.531 34.184 82.2431 33.6777C81.9551 33.1564 81.8112 32.5904 81.8112 31.9798C81.8112 30.8926 82.1927 30.0436 82.9557 29.433C83.7331 28.8223 84.8272 28.517 86.238 28.517H89.0021V28.2713C89.0021 26.6032 88.2535 25.7691 86.7563 25.7691C86.1373 25.7691 85.6118 25.9106 85.1799 26.1936C84.7624 26.4617 84.4817 26.9011 84.3377 27.5117H82.0487C82.1639 26.35 82.6461 25.434 83.4955 24.7638C84.3593 24.0787 85.4462 23.7362 86.7563 23.7362C88.3399 23.7362 89.4916 24.1383 90.2114 24.9426C90.9312 25.7468 91.2912 26.8564 91.2912 28.2713V35.0851H89.3476L89.1533 33.4543H89.0021C88.6854 33.9755 88.2895 34.4223 87.8144 34.7947C87.3394 35.167 86.6267 35.3532 85.6766 35.3532ZM86.1085 33.3649C87.0442 33.3649 87.7424 33.0745 88.2031 32.4936C88.6782 31.8979 88.9373 31.1457 88.9805 30.2372H86.4756C85.655 30.2372 85.0719 30.3787 84.7264 30.6617C84.3953 30.9298 84.2297 31.3096 84.2297 31.8011C84.2297 32.2926 84.3953 32.6798 84.7264 32.9628C85.0719 33.2309 85.5326 33.3649 86.1085 33.3649Z" fill="#17181A"/>
<path d="M93.9173 35.0851V33.0298H96.5302V26.7968C96.5302 26.3053 96.2998 26.0596 95.8392 26.0596H94.1332V24.0043H96.7029C97.2932 24.0043 97.7755 24.183 98.1498 24.5404C98.5241 24.883 98.7112 25.367 98.7112 25.9926V26.2606H98.8192C98.9776 25.4266 99.3159 24.8011 99.8341 24.384C100.367 23.9521 101.137 23.7362 102.145 23.7362H103.808V26.2383H101.475C100.626 26.2383 99.9709 26.5436 99.5102 27.1543C99.0495 27.7649 98.8192 28.4947 98.8192 29.3436V33.0298H102.145V35.0851H93.9173Z" fill="#17181A"/>
<path d="M110.947 35.3532C109.91 35.3532 108.996 35.1149 108.204 34.6383C107.413 34.1468 106.794 33.4691 106.347 32.6053C105.901 31.7415 105.678 30.7362 105.678 29.5894C105.678 28.4277 105.894 27.4074 106.326 26.5287C106.772 25.65 107.391 24.9649 108.183 24.4734C108.989 23.9819 109.918 23.7362 110.968 23.7362C112.005 23.7362 112.898 23.9819 113.646 24.4734C114.395 24.95 114.971 25.5904 115.374 26.3947C115.791 27.1989 116 28.0851 116 29.0532C116 29.2021 116 29.366 116 29.5447C116 29.7085 115.993 29.8947 115.978 30.1032H107.924C107.996 31.1309 108.32 31.9128 108.895 32.4489C109.471 32.9702 110.148 33.2309 110.925 33.2309C111.602 33.2309 112.135 33.0894 112.523 32.8064C112.926 32.5085 113.222 32.1064 113.409 31.6H115.719C115.46 32.6574 114.92 33.5511 114.1 34.2809C113.279 34.9957 112.228 35.3532 110.947 35.3532ZM110.947 25.7915C110.241 25.7915 109.615 26.0149 109.068 26.4617C108.521 26.8936 108.168 27.5043 108.01 28.2936H113.711C113.653 27.5489 113.373 26.9457 112.869 26.484C112.365 26.0223 111.724 25.7915 110.947 25.7915Z" fill="#17181A"/>
<path fill-rule="evenodd" clip-rule="evenodd" d="M40.6137 16C39.7096 16 38.9003 15.7887 38.1858 15.3661C37.4713 14.929 36.9026 14.2878 36.4798 13.4426C36.0715 12.5974 35.8673 11.5556 35.8673 10.3169C35.8673 9.07833 36.0788 8.03643 36.5016 7.19126C36.9245 6.34609 37.4932 5.71221 38.2077 5.28962C38.9368 4.85246 39.7461 4.63388 40.6356 4.63388C41.4667 4.63388 42.1521 4.79417 42.6916 5.11475C43.2311 5.42077 43.6321 5.81421 43.8946 6.29508V0H46.2131V15.7377H44.2227L44.0258 14.1421H43.8946C43.6029 14.7104 43.1874 15.1621 42.6478 15.4973C42.1229 15.8324 41.4448 16 40.6137 16ZM41.0949 13.7924C41.926 13.7924 42.6114 13.5009 43.1509 12.918C43.705 12.3352 43.9821 11.4681 43.9821 10.3169C43.9821 9.15118 43.705 8.28415 43.1509 7.71585C42.6114 7.13297 41.926 6.84153 41.0949 6.84153C40.2637 6.84153 39.5711 7.13297 39.017 7.71585C38.4775 8.29873 38.2077 9.17304 38.2077 10.3388C38.2077 11.49 38.4775 12.357 39.017 12.9399C39.5711 13.5082 40.2637 13.7924 41.0949 13.7924Z" fill="#17181A"/>
<path d="M0 15.7377V13.6831H3.32464V2.4918H0.0437412V0.437157H8.92402V2.4918H5.64314V13.6831H8.96777V15.7377H0Z" fill="#17181A"/>
<path d="M16.8771 16C15.871 16 14.9669 15.7669 14.1649 15.3005C13.3775 14.8342 12.7578 14.1785 12.3057 13.3333C11.8537 12.4736 11.6277 11.4681 11.6277 10.3169C11.6277 9.16576 11.8537 8.16758 12.3057 7.3224C12.7724 6.47723 13.3994 5.8215 14.1868 5.35519C14.9742 4.87432 15.871 4.63388 16.8771 4.63388C18.2624 4.63388 19.3779 4.98361 20.2236 5.68306C21.0839 6.36794 21.6308 7.31512 21.8641 8.52459H19.4362C19.2904 8 18.9915 7.5847 18.5394 7.27869C18.102 6.97268 17.5406 6.81967 16.8552 6.81967C16.3595 6.81967 15.8856 6.95082 15.4335 7.21311C14.9961 7.47541 14.6388 7.86885 14.3618 8.39344C14.0993 8.90346 13.9681 9.54463 13.9681 10.3169C13.9681 11.0747 14.0993 11.7158 14.3618 12.2404C14.6388 12.765 14.9961 13.1658 15.4335 13.4426C15.8856 13.7049 16.3595 13.8361 16.8552 13.8361C17.5552 13.8361 18.1166 13.6831 18.5394 13.3771C18.9623 13.071 19.2612 12.6485 19.4362 12.1093H21.8641C21.5724 13.3042 21.0037 14.2514 20.158 14.9508C19.3123 15.6503 18.2186 16 16.8771 16Z" fill="#17181A"/>
<path fill-rule="evenodd" clip-rule="evenodd" d="M26.3175 15.3005C27.1195 15.7669 28.0455 16 29.0954 16C30.3931 16 31.4576 15.6503 32.2888 14.9508C33.1199 14.2368 33.6667 13.3625 33.9292 12.3279H31.5888C31.3993 12.8233 31.1003 13.2168 30.6921 13.5082C30.2983 13.7851 29.7588 13.9235 29.0735 13.9235C28.2861 13.9235 27.6007 13.6685 27.0175 13.1585C26.4342 12.6339 26.1061 11.8689 26.0332 10.8634H34.1917C34.2063 10.6594 34.2136 10.4772 34.2136 10.3169V9.83607C34.2136 8.88889 34.0021 8.02186 33.5792 7.23497C33.171 6.44809 32.5877 5.8215 31.8294 5.35519C31.0712 4.87432 30.1671 4.63388 29.1172 4.63388C28.0528 4.63388 27.1122 4.87432 26.2957 5.35519C25.4937 5.83607 24.8667 6.50638 24.4146 7.36612C23.9772 8.22587 23.7584 9.22404 23.7584 10.3607C23.7584 11.4827 23.9845 12.4663 24.4365 13.3115C24.8885 14.1567 25.5155 14.8197 26.3175 15.3005ZM27.1924 7.30055C27.7465 6.86339 28.3809 6.64481 29.0954 6.64481C29.8828 6.64481 30.5317 6.87067 31.042 7.3224C31.5524 7.77414 31.8367 8.3643 31.8951 9.0929H26.1207C26.2811 8.32058 26.6383 7.72313 27.1924 7.30055Z" fill="#17181A"/>
<path d="M49.0261 0V15.7377H51.3446V10.1639L56.1784 15.7377H59L53.8818 9.87978V9.70492L58.4094 4.89618H55.5004L51.3446 9.44262V0H49.0261Z" fill="#17181A"/>
<path d="M71 10V8H117V10H71Z" fill="#17181A"/>
</svg>
