<svg xmlns="http://www.w3.org/2000/svg" width="62" height="35" viewBox="0 0 62 35" fill="none"><path d="M19.451 0H0V10.7692H13.8936V13.4615H0V16.1538H13.8936V18.8461H0V21.5384H13.8936V24.2307H0V26.923H13.8936V35H19.451V0Z" fill="#17181A"></path><path d="M28.3085 24.3442H26.7597L24.3137 15.6897H26.0022L27.5637 22.0495H27.6441L29.3114 15.6897H30.8475L32.519 22.0538H32.5952L34.1567 15.6897H35.8451L33.3992 24.3442H31.8504L30.1154 18.2717H30.0477L28.3085 24.3442Z" fill="#17181A"></path><path fill-rule="evenodd" clip-rule="evenodd" d="M41.1921 22.6031C40.9212 23.7314 39.8802 24.4709 38.3653 24.4709C36.406 24.4709 35.2084 23.1736 35.2084 21.1368C35.2084 19.1337 36.4229 17.7688 38.2849 17.7688C39.8845 17.7688 41.2555 18.7703 41.2555 21.048V21.5171H36.7276C36.7403 22.6285 37.3962 23.2793 38.3864 23.2793C39.0466 23.2793 39.5544 22.9919 39.7617 22.4425L41.1921 22.6031ZM38.306 18.9605C37.392 18.9605 36.7784 19.6577 36.7318 20.486H39.7871C39.7787 19.6028 39.1862 18.9605 38.306 18.9605Z" fill="#17181A"></path><path fill-rule="evenodd" clip-rule="evenodd" d="M41.9042 24.3442H43.4107V23.3215H43.4996C43.7408 23.7948 44.2443 24.4583 45.3615 24.4583C46.8934 24.4583 48.0402 23.2454 48.0402 21.1072C48.0402 18.9436 46.8595 17.7688 45.3573 17.7688C44.2105 17.7688 43.7323 18.4576 43.4996 18.9267H43.4361V15.6897H41.9042V24.3442ZM43.4065 21.0987C43.4065 19.8394 43.9481 19.0239 44.9341 19.0239C45.9539 19.0239 46.4787 19.8901 46.4787 21.0987C46.4787 22.3158 45.9455 23.2032 44.9341 23.2032C43.9566 23.2032 43.4065 22.358 43.4065 21.0987Z" fill="#17181A"></path><path fill-rule="evenodd" clip-rule="evenodd" d="M25.9895 32.2321L24.9993 35H24.4407L27.5679 26.3455H28.1773L31.3045 35H30.7459L29.7557 32.2321H25.9895ZM27.8514 27.0259L26.163 31.7419H29.5822L27.8938 27.0259H27.8514Z" fill="#17181A"></path><path d="M33.2082 35H33.8175L35.9207 27.2118H35.9673L38.0704 35H38.6798L41.0622 26.3455H40.5163L38.4005 34.1844H38.3497L36.2677 26.3455H35.6245L33.5425 34.1844H33.4917L31.3759 26.3455H30.8257L33.2082 35Z" fill="#17181A"></path><path fill-rule="evenodd" clip-rule="evenodd" d="M42.1312 32.2321L41.141 35H40.5824L43.7096 26.3455H44.319L47.4462 35H46.8876L45.8974 32.2321H42.1312ZM43.9931 27.0259L42.3047 31.7419H45.7239L44.0355 27.0259H43.9931Z" fill="#17181A"></path><path fill-rule="evenodd" clip-rule="evenodd" d="M48.5861 35H49.115V31.3827H51.2605C51.4128 31.3827 51.5567 31.3742 51.7006 31.3573L53.6683 35H54.2777L52.2338 31.2432C53.2875 30.9179 53.8969 30.0431 53.8969 28.8768C53.8969 27.3766 52.9024 26.3455 51.2563 26.3455H48.5861V35ZM49.115 30.8883V26.8357H51.2436C52.5766 26.8357 53.3721 27.6428 53.3721 28.8768C53.3721 30.1023 52.5766 30.8883 51.2478 30.8883H49.115Z" fill="#17181A"></path><path fill-rule="evenodd" clip-rule="evenodd" d="M62 30.6432C61.9958 33.39 60.5147 35 57.9375 35H55.5339V26.3455H58.1237C60.557 26.3455 62.0042 27.9555 62 30.6432ZM56.0629 26.8357V34.5098H57.9164C60.2354 34.5098 61.488 33.0603 61.4795 30.6432C61.4753 28.264 60.2777 26.8357 58.1026 26.8357H56.0629Z" fill="#17181A"></path></svg>