<svg xmlns="http://www.w3.org/2000/svg" width="14" height="12" viewBox="0 0 14 12" fill="#264DB5"><path d="M12.0792 7.577C12.012 7.1101 11.6515 6.7461 11.1874 6.6376C9.38349 6.2148 8.93129 5.176 8.85499 4.0238C8.53509 3.9643 7.96599 3.8999 6.99999 3.8999C6.03399 3.8999 5.46489 3.9643 5.14499 4.0238C5.06869 5.176 4.61649 6.2148 2.81259 6.6376C2.34849 6.7468 1.98799 7.1101 1.92079 7.577L1.57289 9.9864C1.45039 10.8348 2.07339 11.5999 2.93999 11.5999H11.06C11.9259 11.5999 12.5496 10.8348 12.4271 9.9864L12.0792 7.577ZM6.99999 9.8443C6.02349 9.8443 5.23179 9.0603 5.23179 8.0943C5.23179 7.1283 6.02349 6.3443 6.99999 6.3443C7.97649 6.3443 8.76819 7.1283 8.76819 8.0943C8.76819 9.0603 7.97579 9.8443 6.99999 9.8443ZM13.965 3.1999C13.9482 2.1499 11.2756 0.400602 6.99999 0.399902C2.72369 0.400602 0.0510895 2.1499 0.0349895 3.1999C0.0188895 4.2499 0.0496895 5.6163 1.80949 5.3888C3.86819 5.1221 3.74149 4.4032 3.74149 3.3756C3.74149 2.6588 5.41589 2.4859 6.99999 2.4859C8.58409 2.4859 10.2578 2.6588 10.2585 3.3756C10.2585 4.4032 10.1318 5.1221 12.1905 5.3888C13.9496 5.6163 13.9811 4.2499 13.965 3.1999Z"></path></svg>