<svg xmlns="http://www.w3.org/2000/svg" width="14" height="12" viewBox="0 0 14 12" fill="#264DB5"><path d="M12.2683 3.22325L7.49492 0.864847C7.34088 0.789286 7.17158 0.75 7 0.75C6.82842 0.75 6.65912 0.789286 6.50508 0.864847L1.73168 3.22325C1.47465 3.34795 1.25795 3.54255 1.10644 3.78475C0.954919 4.02695 0.874709 4.30693 0.875001 4.59262V9.64055C0.875001 10.4849 1.57008 11.1718 2.42457 11.1718H11.5754C12.4299 11.1718 13.125 10.4849 13.125 9.64055V4.59262C13.1253 4.30693 13.0451 4.02695 12.8936 3.78475C12.742 3.54255 12.5254 3.34795 12.2683 3.22325ZM6.90102 1.64743C6.93183 1.63231 6.96569 1.62446 7 1.62446C7.03432 1.62446 7.06818 1.63231 7.09899 1.64743L11.7305 3.935L7.02735 6.25922C6.99654 6.27433 6.96268 6.28219 6.92836 6.28219C6.89405 6.28219 6.86018 6.27433 6.82938 6.25922L2.19707 3.97137L6.90102 1.64743Z"></path></svg>