<svg xmlns="http://www.w3.org/2000/svg" width="1902" height="40" viewBox="0 0 1902 40" fill="none"><path d="M1 40L1 0M11 40L11 0M21 40L21 0M31 40L31 0M41 40L41 0M51 40L51 0M61 40L61 0M71 40V0M81 40V0M91 40V0M101 40V0M111 40V0M121 40V0M131 40V0M141 40V0M151 40V0M161 40V0M171 40V0M181 40V0M191 40V0M201 40V0M211 40V0M221 40V0M231 40V0M241 40V0M251 40V0M261 40V0M271 40V0M281 40V0M291 40V0M301 40V0M311 40V0M321 40V0M331 40V0M341 40V0M351 40V0M361 40V0M371 40V0M381 40V0M391 40V0M401 40V0M411 40V0M421 40V0M431 40V0M441 40V0M451 40V0M461 40V0M471 40V0M481 40V0M491 40V0M501 40V0M511 40V0M521 40V0M531 40V0M541 40V0M551 40V0M561 40V0M571 40V0M581 40V0M591 40V0M601 40V0M611 40V0M621 40V0M631 40V0M641 40V0M651 40V0M661 40V0M671 40V0M681 40V0M691 40V0M701 40V0M711 40V0M721 40V0M731 40V0M741 40V0M751 40V0M761 40V0M771 40V0M781 40V0M791 40V0M801 40V0M811 40V0M821 40V0M831 40V0M841 40V0M851 40V0M861 40V0M871 40V0M881 40V0M891 40V0M901 40V0M911 40V0M921 40V0M931 40V0M941 40V0M951 40V0M961 40V0M971 40V0M981 40V0M991 40V0M1001 40V0M1011 40V0M1021 40V0M1031 40V0M1041 40V0M1051 40V0M1061 40V0M1071 40V0M1081 40V0M1091 40V0M1101 40V0M1111 40V0M1121 40V0M1131 40V0M1141 40V0M1151 40V0M1161 40V0M1171 40V0M1181 40V0M1191 40V0M1201 40V0M1211 40V0M1221 40V0M1231 40V0M1241 40V0M1251 40V0M1261 40V0M1271 40V0M1281 40V0M1291 40V0M1301 40V0M1311 40V0M1321 40V0M1331 40V0M1341 40V0M1351 40V0M1361 40V0M1371 40V0M1381 40V0M1391 40V0M1401 40V0M1411 40V0M1421 40V0M1431 40V0M1441 40V0M1451 40V0M1461 40V0M1471 40V0M1481 40V0M1491 40V0M1501 40V0M1511 40V0M1521 40V0M1531 40V0M1541 40V0M1551 40V0M1561 40V0M1571 40V0M1581 40V0M1591 40V0M1601 40V0M1611 40V0M1621 40V0M1631 40V0M1641 40V0M1651 40V0M1661 40V0M1671 40V0M1681 40V0M1691 40V0M1701 40V0M1711 40V0M1721 40V0M1731 40V0M1741 40V0M1751 40V0M1761 40V0M1771 40V0M1781 40V0M1791 40V0M1801 40V0M1811 40V0M1821 40V0M1831 40V0M1841 40V0M1851 40V0M1861 40V0M1871 40V0M1881 40V0M1891 40V0M1901 40V0" stroke="#17181A"></path></svg>