<svg xmlns="http://www.w3.org/2000/svg" width="14" height="14" viewBox="0 0 14 14" fill="#264DB5"><path d="M13.5569 12.6714L12.6 9.8H11.55L12.1331 12.6H1.86692L2.45002 9.8H1.40002L0.442418 12.6714C0.199518 13.4022 0.630018 14 1.40002 14H12.6C13.37 14 13.8005 13.4022 13.5569 12.6714ZM10.5 3.5C10.5 2.57174 10.1313 1.6815 9.47489 1.02513C8.81851 0.368749 7.92828 0 7.00002 0C6.07176 0 5.18152 0.368749 4.52514 1.02513C3.86877 1.6815 3.50002 2.57174 3.50002 3.5C3.50002 6.8425 7.00002 10.5 7.00002 10.5C7.00002 10.5 10.5 6.8425 10.5 3.5ZM5.11002 3.542C5.11002 2.4983 5.95562 1.6527 7.00002 1.6527C7.50118 1.6527 7.98182 1.85179 8.3362 2.20617C8.69058 2.56054 8.88967 3.04118 8.88967 3.54235C8.88967 4.04352 8.69058 4.52416 8.3362 4.87853C7.98182 5.23291 7.50118 5.432 7.00002 5.432C6.49876 5.432 6.01803 5.23288 5.66359 4.87843C5.30914 4.52399 5.11002 4.04326 5.11002 3.542Z"></path></svg>