<svg xmlns="http://www.w3.org/2000/svg" width="48" height="30" viewBox="0 0 48 30" fill="none"><path d="M0 30H14.2476C20.8245 30 24.8889 26.4404 24.8889 21.5039C24.8889 17.2705 21.7408 14.502 17.8538 14.3555V14.0625C21.3566 13.374 23.7065 10.8105 23.7065 7.5C23.7065 2.92969 20.0412 0 13.1243 0H0V30ZM8.21747 23.4961V17.168H12.1784C14.6762 17.168 16.1985 18.3398 16.1985 20.4492C16.1985 22.4561 14.824 23.4961 12.0602 23.4961H8.21747ZM8.21747 12.1289V6.38672H11.7055C13.7451 6.38672 15.2526 7.41211 15.2526 9.25781C15.2526 11.1035 13.7451 12.1289 11.5872 12.1289H8.21747Z" fill="#17181A"></path><path d="M37.6097 30C43.4957 30 47.2815 27.4242 48 23.3838H41.0363C40.5941 24.4823 39.3368 25.101 37.7755 25.101C35.5095 25.101 34.1831 23.7374 34.1831 21.8687V21.5657H48V19.9495C48 13.7753 43.8549 10 37.4439 10C30.867 10 26.6667 13.9899 26.6667 20C26.6667 26.2753 30.8117 30 37.6097 30ZM34.1831 17.7273C34.2245 16.048 35.7444 14.899 37.6097 14.899C39.5026 14.899 40.9395 16.0606 40.981 17.7273H34.1831Z" fill="#17181A"></path><path d="M30 3H45V7.5H30V3Z" fill="#17181A"></path></svg>