<svg xmlns="http://www.w3.org/2000/svg" width="48" height="25" viewBox="0 0 48 25" fill="none"><path d="M41.1572 0L33.0472 24.6827H25.4732L20.6858 9.6615L15.684 24.6827H8.10997L0 0H7.28826L12.3257 15.7616L17.6133 0H24.1156L29.153 15.9027L34.4049 0H41.1572Z" fill="#17181A"></path><path d="M43.9272 25C42.7839 25 41.8193 24.6239 41.0333 23.8716C40.2473 23.1194 39.8543 22.1674 39.8543 21.0155C39.8543 19.8402 40.2354 18.8881 40.9976 18.1594C41.7835 17.4307 42.7601 17.0663 43.9272 17.0663C45.118 17.0663 46.0946 17.4307 46.8567 18.1594C47.6189 18.8881 48 19.8402 48 21.0155C48 22.1674 47.607 23.1194 46.821 23.8716C46.0588 24.6239 45.0942 25 43.9272 25Z" fill="#17181A"></path></svg>