<svg xmlns="http://www.w3.org/2000/svg" width="62" height="30" viewBox="0 0 62 30" fill="none"><path d="M12.71 30L2.44002 2L0 1.5V0.714287H10.1243V1.5L6.8102 2L14.6401 23.1429L19.9572 9.5L17.2258 2L13.8753 1.5V0.714287H24.6915V1.5L21.5596 1.92857L29.4623 23.1071L37.2922 3.10714L33.177 1.5V0.714287H41.0069V1.5L38.2391 3.07143L27.8235 30H27.5322L20.4306 10.75L13.0013 30H12.71Z" fill="#17181A"></path><path d="M34.0308 29.2857V28.5357L37.5998 27.1071L48.1247 0H48.7074L58.6495 28L62 28.5357V29.2857H51.293V28.5357L54.2793 28.0714L51.1838 19.6071H41.4966L38.5467 27.1071L41.8243 28.5357V29.2857H34.0308ZM41.7879 18.8571H50.9289L46.5587 6.28571L41.7879 18.8571Z" fill="#17181A"></path></svg>